<svg xmlns="http://www.w3.org/2000/svg" version="1.1" xmlns:xlink="http://www.w3.org/1999/xlink" xmlns:svgjs="http://svgjs.dev/svgjs" viewBox="0 0 1422 800"><defs><filter id="uuunion-blur" x="-100%" y="-100%" width="400%" height="400%" color-interpolation-filters="sRGB">
        <feGaussianBlur in="SourceGraphic" stdDeviation="7.5 0" result="blur"></feGaussianBlur>
        <feDropShadow stdDeviation="12.307692307692308" in="blur" dx="10" dy="10" flood-color="hsl(265, 55%, 30%)" flood-opacity="0.25" x="0%" y="0%" width="100%" height="100%"></feDropShadow>
      </filter><filter id="uuunion-blur2" x="-100%" y="-100%" width="400%" height="400%" color-interpolation-filters="sRGB">
        <feGaussianBlur in="SourceGraphic" stdDeviation="7.5 0" result="blur"></feGaussianBlur>
        <feDropShadow stdDeviation="12.307692307692308" in="blur" dx="-10" dy="-10" flood-color="hsl(265, 55%, 30%)" flood-opacity="0.25" x="0%" y="0%" width="100%" height="100%"></feDropShadow>
      </filter><linearGradient gradientTransform="rotate(0, 0.5, 0.5)" x1="50%" y1="0%" x2="50%" y2="100%" id="uuunion-grad"><stop stop-color="hsl(265, 55%, 60%)" offset="10%"></stop><stop stop-color="hsl(265, 55%, 30%)" offset="90%"></stop></linearGradient><linearGradient gradientTransform="rotate(135, 0.5, 0.5)" x1="50%" y1="0%" x2="50%" y2="100%" id="uuunion-grad2"><stop stop-color="hsl(265, 55%, 60%)" offset="25%"></stop><stop stop-color="hsl(265, 55%, 30%)" offset="100%"></stop></linearGradient><linearGradient gradientTransform="rotate(333, 0.5, 0.5)" x1="50%" y1="0%" x2="50%" y2="100%" id="uuunion-grad3"><stop stop-color="hsl(265, 55%, 60%)" offset="0%"></stop><stop stop-color="hsl(265, 55%, 30%)" offset="75%"></stop></linearGradient></defs><path d="M-131.36 -88.54Q-118.38 -87.67 -105.4 -86.23 -92.41 -84.33 -79.43 -82.11 -66.44 -79.74 -53.46 -77.38 -40.48 -75.22 -27.49 -73.41 -14.51 -72.08 -1.53 -71.34 11.45 -71.23 24.43 -71.77 37.41 -72.91 50.4 -74.57 63.38 -76.64 76.36 -78.94 89.35 -81.33 102.33 -83.62 115.31 -85.64 128.3 -87.25 141.28 -88.32 154.27 -88.78 167.25 -88.59 180.23 -87.78 193.22 -86.38 206.2 -84.52 219.18 -82.33 232.17 -79.96 245.15 -77.6 258.13 -75.41 271.12 -73.56 284.1 -72.19 297.08 -71.38 310.07 -71.21 323.05 -71.69 336.03 -72.78 349.02 -74.4 362 -76.43 374.99 -78.72 387.97 -81.11 400.95 -83.41 413.94 -85.47 426.92 -87.12 439.9 -88.24 452.89 -88.76 465.87 -88.64 478.85 -87.88 491.84 -86.54 504.82 -84.72 517.8 -82.55 530.79 -80.19 543.77 -77.82 556.76 -75.61 569.74 -73.72 582.72 -72.29 595.71 -71.43 608.69 -71.2 621.67 -71.62 634.66 -72.65 647.64 -74.22 660.62 -76.22 673.61 -78.5 686.59 -80.88 699.58 -83.2 712.56 -85.29 725.54 -86.98 738.53 -88.16 751.51 -88.74 764.49 -88.68 777.48 -87.98 790.46 -86.69 803.44 -84.91 816.43 -82.76 829.41 -80.42 842.39 -78.04 855.38 -75.8 868.36 -73.88 881.35 -72.4 894.33 -71.49 907.31 -71.2 920.3 -71.55 933.28 -72.53 946.26 -74.06 959.25 -76.02 972.23 -78.27 985.21 -80.66 998.2 -82.99 1011.18 -85.1 1024.17 -86.84 1037.15 -88.08 1050.13 -88.71 1063.12 -88.71 1076.1 -88.07 1089.08 -86.83 1102.07 -85.09 1115.05 -82.98 1128.03 -80.64 1141.02 -78.26 1154 -76 1166.99 -74.04 1179.97 -72.52 1192.95 -71.55 1205.94 -71.2 1218.92 -71.49 1231.9 -72.41 1244.89 -73.89 1257.87 -75.82 1270.85 -78.05 1283.84 -80.43 1296.82 -82.78 1309.81 -84.92 1322.79 -86.7 1335.77 -87.98 1348.76 -88.68 1361.74 -88.74 1374.72 -88.16 1387.71 -86.97 1400.69 -85.27 1413.67 -83.19 1426.66 -80.87 1439.64 -78.48 1452.63 -76.21 1465.61 -74.21 1478.59 -72.64 1491.58 -71.61 1504.56 -71.2 1517.54 -71.44 1530.53 -72.3 1532.83 -57.1 1537.45 -41.91 1544.05 -26.71 1552.14 -11.51 1561.12 3.67 1570.32 18.87 1579.08 34.07 1586.73 49.26 1592.72 64.46 1596.6 79.66 1598.08 94.85 1597.06 110.05 1593.61 125.25 1587.98 140.44 1580.6 155.64 1572.01 170.84 1562.83 186.03 1553.76 201.23 1545.46 216.43 1538.54 231.63 1533.52 246.82 1530.77 262.02 1530.49 277.22 1532.7 292.41 1537.24 307.61 1543.77 322.81 1551.81 338 1560.76 353.2 1569.98 368.4 1578.76 383.59 1586.46 398.79 1592.52 413.99 1596.49 429.18 1598.07 444.38 1597.14 459.58 1593.78 474.77 1588.24 489.97 1580.91 505.17 1572.35 520.36 1563.19 535.56 1554.1 550.76 1545.75 565.95 1538.78 581.15 1533.67 596.35 1530.83 611.54 1530.45 626.74 1532.57 641.94 1537.02 657.13 1543.49 672.33 1551.48 687.53 1560.41 702.72 1569.63 717.92 1578.44 733.12 1586.2 748.31 1592.33 763.51 1596.38 778.71 1598.06 793.9 1597.23 809.1 1593.96 824.3 1588.48 839.49 1581.22 854.69 1572.69 869.89 1563.54 885.09 1554.44 900.28 1541.21 902.56 1527.98 903.18 1514.74 902.09 1501.51 899.38 1488.28 895.24 1475.05 889.98 1461.82 883.99 1448.59 877.7 1435.36 871.58 1422.13 866.08 1408.9 861.6 1395.67 858.48 1382.44 856.94 1369.21 857.09 1355.98 858.93 1342.75 862.32 1329.52 867.01 1316.29 872.66 1303.06 878.84 1289.83 885.11 1276.6 891.01 1263.37 896.09 1250.13 899.99 1236.9 902.41 1223.67 903.19 1210.44 902.27 1197.21 899.7 1183.98 895.68 1170.75 890.51 1157.52 884.57 1144.29 878.29 1131.06 872.14 1117.83 866.56 1104.6 861.97 1091.37 858.71 1078.14 857.01 1064.91 857.01 1051.68 858.69 1038.45 861.94 1025.22 866.53 1011.99 872.1 998.76 878.25 985.53 884.53 972.3 890.48 959.06 895.65 945.83 899.68 932.6 902.25 919.37 903.19 906.14 902.43 892.91 900.01 879.68 896.12 866.45 891.04 853.22 885.15 839.99 878.89 826.76 872.7 813.53 867.05 800.3 862.35 787.07 858.95 773.84 857.1 760.61 856.93 747.38 858.46 734.15 861.58 720.92 866.04 707.69 871.54 694.46 877.66 681.23 883.94 668 889.94 654.76 895.21 641.53 899.36 628.3 902.08 615.07 903.18 601.84 902.57 588.61 900.3 575.38 896.54 562.15 891.56 548.92 885.73 535.69 879.48 522.46 873.27 509.23 867.55 496 862.74 482.77 859.21 469.54 857.21 456.31 856.88 443.08 858.25 429.85 861.22 416.62 865.57 403.39 870.99 390.16 877.06 376.93 883.35 363.7 889.4 350.47 894.75 337.24 899.02 324 901.89 310.77 903.15 297.54 902.7 284.31 900.58 271.08 896.95 257.85 892.08 244.62 886.31 231.39 880.08 218.16 873.84 204.93 868.06 191.7 863.15 178.47 859.48 165.24 857.32 152.01 856.83 138.78 858.05 125.55 860.88 112.32 865.11 99.09 870.44 85.86 876.47 72.63 882.76 59.4 888.85 46.17 894.29 32.94 898.67 19.71 901.68 6.48 903.1 -6.74 902.82 -19.97 900.85 -33.21 897.36 -46.44 892.58 -59.67 886.88 -72.9 880.67 -86.13 874.42 -99.36 868.57 -112.59 863.57 -125.82 859.77 -139.05 857.46 -141.97 842.68 -144.92 827.9 -147.66 813.11 -149.99 798.33 -151.75 783.55 -152.8 768.77 -153.07 753.99 -152.53 739.21 -151.23 724.43 -149.26 709.64 -146.76 694.86 -143.93 680.08 -140.97 665.3 -138.1 650.52 -135.53 635.74 -133.45 620.96 -132.02 606.17 -131.34 591.39 -131.46 576.61 -132.37 561.83 -134.01 547.05 -136.26 532.27 -138.94 517.49 -141.86 502.7 -144.81 487.92 -147.56 473.14 -149.91 458.36 -151.7 443.58 -152.78 428.8 -153.07 414.02 -152.57 399.23 -151.29 384.45 -149.34 369.67 -146.87 354.89 -144.04 340.11 -141.08 325.33 -138.2 310.55 -135.62 295.76 -133.52 280.98 -132.06 266.2 -131.35 251.42 -131.44 236.64 -132.33 221.86 -133.94 207.08 -136.16 192.29 -138.83 177.51 -141.75 162.73 -144.7 147.95 -147.46 133.17 -149.83 118.39 -151.64 103.61 -152.75 88.82 -153.08 74.04 -152.6 59.26 -151.35 44.48 -149.43 29.7 -146.97 14.92 -144.16 0.14 -141.2 -14.64 -138.31 -29.42 -135.71 -44.2 -133.59 -58.98 -132.1 -73.76 -131.36 -88.54" fill="url(#uuunion-grad)"></path><path d="M-131.37 -88.54Q-132.11 -73.76 -133.6 -58.98 -135.72 -44.2 -138.32 -29.42 -141.21 -14.64 -144.17 0.13 -146.98 14.92 -149.44 29.7 -151.36 44.48 -152.61 59.26 -153.09 74.04 -152.76 88.82 -151.65 103.6 -149.84 118.39 -147.47 133.17 -144.71 147.95 -141.76 162.73 -138.84 177.51 -136.17 192.29 -133.95 207.07 -132.33 221.86 -131.45 236.64 -131.36 251.42 -132.07 266.2 -133.53 280.98 -135.63 295.76 -138.21 310.54 -141.09 325.33 -144.05 340.11 -146.88 354.89 -145.79 377.53 -133.14 386.81 -124.05 388.66 -114.97 390.89 -105.89 393.41 -96.81 396.15 -87.72 399.01 -78.64 401.91 -69.56 404.74 -60.48 407.42 -51.39 409.85 -42.31 411.97 -33.23 413.68 -24.15 414.95 -6.98 415.92 -3.95 415.98 7.6 412.26 19.16 407.75 30.71 402.55 42.25 396.74 53.79 390.48 65.31 383.93 76.81 377.26 88.3 370.66 99.76 364.3 111.2 358.34 122.62 352.93 134.01 348.18 145.38 344.17 156.71 340.94 168.02 338.48 179.29 336.77 190.53 335.72 201.73 335.23 212.91 335.15 224.05 335.34 235.16 335.61 246.23 335.8 257.27 335.73 268.28 335.26 279.26 334.25 290.21 332.6 301.13 330.23 312.02 327.11 322.89 323.25 333.73 318.69 344.56 313.5 355.36 307.8 366.15 301.72 376.92 295.41 387.68 289.03 398.43 282.76 409.17 276.75 419.91 271.15 430.65 266.07 441.39 261.62 452.13 257.86 462.88 254.82 473.64 252.49 484.42 250.82 495.21 249.73 506.02 249.12 516.86 248.86 527.72 248.79 538.6 248.77 549.52 248.62 560.46 248.21 571.45 247.39 582.47 246.06 593.52 244.11 604.62 241.51 615.76 238.21 626.94 234.25 638.17 229.66 649.44 224.53 660.76 218.96 672.13 213.08 683.54 207.02 695.01 200.95 706.51 195.01 718.07 189.35 729.67 184.08 741.32 179.32 753.01 175.15 764.74 171.62 776.52 168.73 788.33 166.48 800.18 164.82 812.07 163.66 823.98 162.91 835.93 162.44 847.91 162.1 859.9 161.77 871.92 161.29 883.96 160.54 896 159.39 908.06 157.75 920.12 155.54 932.19 152.73 944.25 149.3 956.3 145.26 968.34 140.69 980.37 135.64 992.38 130.23 1004.36 124.56 1016.31 118.78 1028.24 113.02 1040.12 107.42 1051.96 102.09 1063.76 97.15 1075.51 92.68 1087.2 88.76 1098.84 85.42 1110.41 82.66 1121.93 80.46 1133.37 78.77 1144.75 77.51 1156.05 76.59 1167.27 75.88 1178.42 75.27 1189.49 74.62 1200.47 73.81 1211.38 72.73 1222.2 71.26 1232.93 69.34 1243.58 66.9 1254.14 63.91 1264.61 60.37 1275 56.31 1285.31 51.77 1295.53 46.84 1305.68 41.61 1315.74 36.19 1325.72 30.69 1335.63 25.25 1345.46 19.97 1355.23 14.97 1364.93 10.33 1374.57 6.14 1384.15 2.44 1393.68 -0.74 1403.16 -3.41 1412.6 -5.59 1422 -7.34 1412.56 -24.65 1404.07 -41.95 1397.38 -59.26 1393.16 -76.57 1391.84 -93.87 1393.54 -111.18 1398.1 -128.49 1405.06 -145.8 1392.93 -146.95 1380.8 -147.66 1368.67 -147.89 1356.54 -147.63 1344.4 -146.89 1332.27 -145.71 1320.14 -144.18 1308.01 -142.38 1295.88 -140.43 1283.75 -138.46 1271.62 -136.58 1259.49 -134.92 1247.36 -133.57 1235.23 -132.63 1223.09 -132.15 1210.96 -132.16 1198.83 -132.67 1186.7 -133.64 1174.57 -135 1162.44 -136.68 1150.31 -138.57 1138.18 -140.54 1126.05 -142.49 1113.91 -144.27 1101.78 -145.79 1089.65 -146.94 1077.52 -147.66 1065.39 -147.89 1053.26 -147.63 1041.13 -146.89 1029 -145.72 1016.87 -144.19 1004.74 -142.39 992.6 -140.44 980.47 -138.47 968.34 -136.59 956.21 -134.92 944.08 -133.58 931.95 -132.63 919.82 -132.15 907.69 -132.16 895.56 -132.67 883.42 -133.63 871.29 -134.99 859.16 -136.67 847.03 -138.56 834.9 -140.53 822.77 -142.48 810.64 -144.26 798.51 -145.78 786.38 -146.94 774.25 -147.66 762.11 -147.89 749.98 -147.64 737.85 -146.9 725.72 -145.73 713.59 -144.19 701.46 -142.4 689.33 -140.45 677.2 -138.48 665.07 -136.6 652.94 -134.93 640.8 -133.58 628.67 -132.64 616.54 -132.15 604.41 -132.16 592.28 -132.66 580.15 -133.62 568.02 -134.99 555.89 -136.66 543.76 -138.55 531.62 -140.52 519.49 -142.47 507.36 -144.26 495.23 -145.78 483.1 -146.93 470.97 -147.65 458.84 -147.89 446.71 -147.64 434.58 -146.9 422.45 -145.73 410.31 -144.2 398.18 -142.41 386.05 -140.46 373.92 -138.49 361.79 -136.61 349.66 -134.94 337.53 -133.59 325.4 -132.64 313.27 -132.15 301.14 -132.16 289 -132.66 276.87 -133.62 264.74 -134.98 252.61 -136.65 240.48 -138.54 228.35 -140.51 216.22 -142.46 204.09 -144.25 191.96 -145.77 179.82 -146.93 167.69 -147.65 155.56 -147.89 143.43 -147.64 131.3 -146.91 119.17 -145.74 107.04 -144.21 94.91 -142.42 82.78 -140.47 70.65 -138.5 58.51 -136.62 46.38 -134.95 34.25 -133.59 22.12 -132.64 9.99 -132.16 -2.13 -132.16 -14.26 -132.66 -26.39 -133.61 -38.52 -134.97 -50.65 -136.64 -62.79 -138.53 -74.92 -140.5 -87.05 -142.45 -99.18 -144.24 -111.31 -145.76 -123.44 -146.92 -139.06 -140.38 -138.05 -118.29 -134.31 -103.43 -131.37 -88.54" fill="url(#uuunion-grad2)" filter="url(#uuunion-blur)"></path><path d="M1408.47 309.13Q1417.25 311.12 1426.03 313.4 1434.82 315.9 1443.6 318.53 1452.38 321.21 1461.17 323.85 1469.95 326.36 1478.73 328.67 1487.51 330.69 1496.3 332.36 1505.08 333.62 1513.86 334.44 1522.65 334.78 1531.43 334.64 1540.21 334.02 1548.99 332.94 1559.24 350.67 1569.98 368.4 1580.13 386.13 1588.69 403.85 1594.79 421.58 1597.82 439.31 1597.47 457.04 1593.78 474.77 1587.12 492.5 1578.16 510.23 1567.8 527.96 1557.08 545.69 1547.07 563.42 1538.78 581.15 1533.04 598.88 1530.43 616.61 1531.2 634.34 1535.3 652.07 1542.29 669.8 1551.48 687.53 1561.95 705.26 1572.64 722.99 1582.49 740.72 1590.5 758.45 1595.87 776.18 1598.06 793.9 1596.85 811.63 1592.36 829.36 1585.04 847.09 1575.64 864.82 1565.08 882.55 1554.44 900.28 1542.3 902.43 1530.16 903.19 1518.03 902.52 1505.89 900.45 1493.76 897.11 1481.62 892.71 1469.49 887.52 1457.35 881.87 1445.21 876.1 1433.08 870.57 1420.94 865.63 1408.81 861.57 1396.67 858.66 1384.54 857.07 1372.4 856.9 1360.26 858.16 1348.13 860.77 1335.99 864.58 1323.86 869.34 1311.72 874.75 1299.59 880.5 1287.45 886.21 1275.31 891.54 1263.18 896.15 1251.04 899.76 1238.91 902.15 1226.77 903.16 1214.64 902.74 1202.5 900.91 1190.36 897.79 1178.23 893.56 1166.09 888.49 1153.96 882.89 1141.82 877.12 1129.69 871.52 1117.55 866.45 1105.41 862.22 1093.28 859.09 1081.14 857.25 1069.01 856.82 1056.87 857.83 1044.74 860.22 1032.6 863.82 1020.46 868.43 1008.33 873.76 996.19 879.47 984.06 885.21 971.92 890.64 959.79 895.4 947.65 899.21 935.51 901.82 923.38 903.09 911.24 902.92 899.11 901.34 886.97 898.43 874.84 894.38 862.7 889.44 850.56 883.91 838.43 878.14 826.29 872.49 814.16 867.3 802.02 862.9 789.89 859.55 777.75 857.48 765.61 856.8 753.48 857.55 741.34 859.7 729.21 863.1 717.07 867.55 704.94 872.77 692.8 878.44 680.66 884.21 668.53 889.71 656.39 894.61 644.26 898.61 632.12 901.45 619.99 902.97 607.85 903.06 595.71 901.72 583.58 899.03 571.44 895.17 559.31 890.37 547.17 884.92 535.04 879.17 522.9 873.47 510.76 868.17 498.63 863.61 486.49 860.06 474.36 857.75 462.22 856.81 450.09 857.31 437.95 859.22 425.81 862.41 413.68 866.7 401.54 871.8 389.41 877.42 377.27 883.19 365.14 888.77 353 893.8 340.86 897.98 328.73 901.04 316.59 902.8 304.46 903.15 292.32 902.06 280.19 899.6 268.05 895.93 255.91 891.28 243.78 885.92 231.64 880.2 219.51 874.46 207.37 869.07 195.24 864.35 183.1 860.61 170.96 858.06 158.83 856.87 146.69 857.12 134.56 858.78 122.42 861.76 110.29 865.87 98.15 870.85 86.02 876.4 73.88 882.17 61.74 887.81 49.61 892.96 37.47 897.31 25.34 900.59 6.49 897.81 -1.51 882.89 -2.8 872.74 -4.03 862.59 -5.16 852.44 -6.15 842.29 -7.03 827.07 -6.57 822 5.95 814.94 18.59 806.53 31.33 796.91 44.15 786.31 57.04 775.01 69.99 763.36 82.99 751.69 96.01 740.37 109.05 729.71 122.1 720 135.13 711.45 148.13 704.19 161.1 698.28 174.02 693.69 186.89 690.3 199.69 687.91 212.42 686.26 225.08 685.05 237.66 683.96 250.17 682.64 262.6 680.78 274.97 678.11 287.27 674.4 299.51 669.49 311.71 663.31 323.86 655.88 335.99 647.26 348.11 637.64 360.22 627.24 372.34 616.32 384.49 605.21 396.67 594.21 408.9 583.63 421.2 573.75 433.56 564.78 446.01 556.91 458.55 550.22 471.18 544.72 483.91 540.36 496.75 537.01 509.69 534.47 522.74 532.48 535.88 530.77 549.12 529.05 562.44 527.02 575.84 524.41 589.3 520.99 602.81 516.6 616.35 511.11 629.91 504.5 643.47 496.8 657.02 488.1 670.52 478.6 683.97 468.49 697.33 458.04 710.61 447.52 723.77 437.2 736.8 427.36 749.69 418.2 762.42 409.92 774.98 402.64 787.36 396.4 799.55 391.2 811.56 386.96 821.31 387.81 831.05 389.08 840.78 390.67 850.5 392.48 860.2 394.37 869.88 396.24 879.56 397.95 889.22 399.39 898.87 400.46 908.5 401.06 918.12 401.13 927.72 400.61 937.31 399.48 946.89 397.73 956.45 395.38 965.99 392.49 975.52 389.11 985.04 385.33 994.54 381.25 1004.03 376.97 1013.5 372.63 1022.95 368.34 1032.39 364.22 1041.82 360.38 1051.23 356.93 1060.63 353.94 1070.01 351.49 1079.38 349.62 1088.73 348.35 1098.07 347.68 1107.39 347.6 1116.7 348.04 1125.99 348.95 1135.27 350.24 1144.54 351.81 1153.8 353.54 1163.04 355.32 1172.26 357.04 1181.48 358.56 1190.68 359.8 1199.87 360.64 1209.04 361.02 1218.21 360.86 1227.36 360.12 1236.5 358.79 1245.63 356.88 1254.75 354.4 1263.86 351.4 1272.95 347.97 1282.04 344.18 1291.12 340.14 1300.19 335.94 1309.25 331.72 1318.3 327.59 1327.35 323.65 1336.39 320.02 1345.42 316.79 1354.44 314.03 1363.46 311.8 1372.47 310.14 1381.48 309.06 1390.48 308.55 1399.48 308.59 1408.47 309.13" fill="url(#uuunion-grad3)" filter="url(#uuunion-blur2)"></path></svg>